HIERARCHY
ROOT hip
{
  OFFSET -51.4602 84.4659 -87.1791
  CHANNELS 6 Xposition Yposition Zposition Zrotation Xrotation Yrotation
  JOINT abdomen
  {
    OFFSET 0 20.6881 -0.73152
    CHANNELS 3 Zrotation Xrotation Yrotation
    JOINT chest
    {
      OFFSET 0 11.7043 -0.48768
      CHANNELS 3 Zrotation Xrotation Yrotation
      JOINT neck
      {
        OFFSET 0 22.1894 -2.19456
        CHANNELS 3 Zrotation Xrotation Yrotation
        JOINT head
        {
          OFFSET -0.24384 7.07133 1.2192
          CHANNELS 3 Zrotation Xrotation Yrotation
          JOINT leftEye
          {
            OFFSET 4.14528 8.04674 8.04672
            CHANNELS 3 Zrotation Xrotation Yrotation
            End Site
            {
              OFFSET 1 0 0
            }
          }
          JOINT rightEye
          {
            OFFSET -3.6576 8.04674 8.04672
            CHANNELS 3 Zrotation Xrotation Yrotation
            End Site
            {
              OFFSET 1 0 0
            }
          }
        }
      }
      JOINT rCollar
      {
        OFFSET -2.68224 19.2634 -4.8768
        CHANNELS 3 Zrotation Xrotation Yrotation
        JOINT rShldr
        {
          OFFSET -8.77824 -1.95073 1.46304
          CHANNELS 3 Zrotation Xrotation Yrotation
          JOINT rForeArm
          {
            OFFSET -28.1742 -1.7115 0.48768
            CHANNELS 3 Zrotation Xrotation Yrotation
            JOINT rHand
            {
              OFFSET -22.5879 0.773209 7.07136
              CHANNELS 3 Zrotation Xrotation Yrotation
              JOINT rThumb1
              {
                OFFSET -1.2192 -0.487915 3.41376
                CHANNELS 3 Zrotation Xrotation Yrotation
                JOINT rThumb2
                {
                  OFFSET -3.37035 -0.52449 3.41376
                  CHANNELS 3 Zrotation Xrotation Yrotation
                  End Site
                  {
                    OFFSET -1.78271 -1.18214 1.43049
                  }
                }
              }
              JOINT rIndex1
              {
                OFFSET -7.75947 0.938293 5.60832
                CHANNELS 3 Zrotation Xrotation Yrotation
                JOINT rIndex2
                {
                  OFFSET -2.54057 -0.884171 1.56538
                  CHANNELS 3 Zrotation Xrotation Yrotation
                  End Site
                  {
                    OFFSET -1.62519 -0.234802 1.16502
                  }
                }
              }
              JOINT rMid1
              {
                OFFSET -8.24714 1.18213 3.41376
                CHANNELS 3 Zrotation Xrotation Yrotation
                JOINT rMid2
                {
                  OFFSET -3.10165 -0.590103 1.0647
                  CHANNELS 3 Zrotation Xrotation Yrotation
                  End Site
                  {
                    OFFSET -2.48547 -0.328903 0.83742
                  }
                }
              }
              JOINT rRing1
              {
                OFFSET -8.82822 0.546677 1.51678
                CHANNELS 3 Zrotation Xrotation Yrotation
                JOINT rRing2
                {
                  OFFSET -2.60934 -0.819778 -0.0198488
                  CHANNELS 3 Zrotation Xrotation Yrotation
                  End Site
                  {
                    OFFSET -2.33842 -0.294052 0.168128
                  }
                }
              }
              JOINT rPinky1
              {
                OFFSET -8.27202 -0.0477905 -0.4584
                CHANNELS 3 Zrotation Xrotation Yrotation
                JOINT rPinky2
                {
                  OFFSET -1.82734 -0.647385 -0.700984
                  CHANNELS 3 Zrotation Xrotation Yrotation
                  End Site
                  {
                    OFFSET -1.69225 -0.51767 -0.607171
                  }
                }
              }
            }
          }
        }
      }
      JOINT lCollar
      {
        OFFSET 2.68224 19.2634 -4.8768
        CHANNELS 3 Zrotation Xrotation Yrotation
        JOINT lShldr
        {
          OFFSET 8.77824 -1.95073 1.46304
          CHANNELS 3 Zrotation Xrotation Yrotation
          JOINT lForeArm
          {
            OFFSET 28.1742 -1.7115 0.48768
            CHANNELS 3 Zrotation Xrotation Yrotation
            JOINT lHand
            {
              OFFSET 22.5879 0.773209 7.07136
              CHANNELS 3 Zrotation Xrotation Yrotation
              JOINT lThumb1
              {
                OFFSET 1.2192 -0.487915 3.41376
                CHANNELS 3 Zrotation Xrotation Yrotation
                JOINT lThumb2
                {
                  OFFSET 3.37035 -0.52449 3.41376
                  CHANNELS 3 Zrotation Xrotation Yrotation
                  End Site
                  {
                    OFFSET 1.78271 -1.18214 1.43049
                  }
                }
              }
              JOINT lIndex1
              {
                OFFSET 7.75947 0.938293 5.60832
                CHANNELS 3 Zrotation Xrotation Yrotation
                JOINT lIndex2
                {
                  OFFSET 2.54057 -0.884171 1.56538
                  CHANNELS 3 Zrotation Xrotation Yrotation
                  End Site
                  {
                    OFFSET 1.62519 -0.234802 1.16502
                  }
                }
              }
              JOINT lMid1
              {
                OFFSET 8.24714 1.18213 3.41376
                CHANNELS 3 Zrotation Xrotation Yrotation
                JOINT lMid2
                {
                  OFFSET 3.10165 -0.590103 1.0647
                  CHANNELS 3 Zrotation Xrotation Yrotation
                  End Site
                  {
                    OFFSET 2.48547 -0.328903 0.83742
                  }
                }
              }
              JOINT lRing1
              {
                OFFSET 8.82822 0.546677 1.51678
                CHANNELS 3 Zrotation Xrotation Yrotation
                JOINT lRing2
                {
                  OFFSET 2.60934 -0.819778 -0.0198488
                  CHANNELS 3 Zrotation Xrotation Yrotation
                  End Site
                  {
                    OFFSET 2.33842 -0.294052 0.168128
                  }
                }
              }
              JOINT lPinky1
              {
                OFFSET 8.27202 -0.0477905 -0.4584
                CHANNELS 3 Zrotation Xrotation Yrotation
                JOINT lPinky2
                {
                  OFFSET 1.82734 -0.647385 -0.700984
                  CHANNELS 3 Zrotation Xrotation Yrotation
                  End Site
                  {
                    OFFSET 1.69225 -0.51767 -0.607171
                  }
                }
              }
            }
          }
        }
      }
    }
  }
  JOINT rButtock
  {
    OFFSET -8.77824 4.35084 1.2192
    CHANNELS 3 Zrotation Xrotation Yrotation
    JOINT rThigh
    {
      OFFSET 0 -1.70687 -2.19456
      CHANNELS 3 Zrotation Xrotation Yrotation
      JOINT rShin
      {
        OFFSET 0 -36.8199 0.73152
        CHANNELS 3 Zrotation Xrotation Yrotation
        JOINT rFoot
        {
          OFFSET 0.73152 -45.1104 -5.12064
          CHANNELS 3 Zrotation Xrotation Yrotation
          End Site
          {
            OFFSET -1.1221 -3.69964 12.103
          }
        }
      }
    }
  }
  JOINT lButtock
  {
    OFFSET 8.77824 4.35084 1.2192
    CHANNELS 3 Zrotation Xrotation Yrotation
    JOINT lThigh
    {
      OFFSET 0 -1.70687 -2.19456
      CHANNELS 3 Zrotation Xrotation Yrotation
      JOINT lShin
      {
        OFFSET 0 -36.8199 0.73152
        CHANNELS 3 Zrotation Xrotation Yrotation
        JOINT lFoot
        {
          OFFSET -0.73152 -45.1104 -5.12064
          CHANNELS 3 Zrotation Xrotation Yrotation
          End Site
          {
            OFFSET 1.1221 -3.69964 12.103
          }
        }
      }
    }
  }
}
MOTION
Frames:	4
Frame Time:	0.00833333
-55.4852 85.4272 -79.9123 -1.32279 0.00339832 0.0248137 1.74075 -0.00337331 0.0475549 0.480623 0.000939389 0.0832335 5.40511e-015 0 2.23633e-016 1.63252e-014 3.18055e-015 6.70898e-016 -0 0 0 -0 0 0 2.73166e-015 -6.7944e-017 1.98785e-016 5.92502e-014 -1.36043e-015 3.77691e-015 9.8145e-013 -3.46283e-013 5.725e-014 1.13414e-011 4.7435e-014 4.92986e-013 2.67417e-011 -6.5014e-013 1.21497e-012 4.61848e-011 -1.13228e-012 2.08167e-012 2.67493e-011 -6.47243e-013 1.20543e-012 7.73091 5.47488 0.417314 2.67424e-011 -6.50026e-013 1.21497e-012 2.90554 0.965183 0.102902 2.67543e-011 -6.49131e-013 1.20941e-012 10.2786 0.731801 0.0259123 2.67441e-011 -6.51219e-013 1.21179e-012 2.22167 -0.733487 -0.20892 2.7351e-015 -6.91087e-017 0 5.52891e-014 -1.04983e-015 1.78906e-015 9.96309e-013 2.5027e-013 9.54166e-015 1.13333e-011 -5.44844e-013 5.59778e-013 2.67564e-011 -6.412e-013 1.21497e-012 4.62035e-011 -1.10683e-012 2.10473e-012 2.67493e-011 -6.37304e-013 1.22769e-012 -7.73091 5.47488 -0.417314 2.6755e-011 -6.40087e-013 1.21815e-012 -2.90554 0.965183 -0.102902 2.67436e-011 -6.40584e-013 1.21577e-012 -10.2786 0.731801 -0.0259123 2.67558e-011 -6.42075e-013 1.20861e-012 -2.22167 -0.733487 0.20892 -2.03217e-016 0 -3.88251e-019 1.78278 -6.93916 -0.17244 0.00357158 7.00589 0.0919059 -0.484473 -0.0713239 0.0535438 2.03217e-016 0 3.88251e-019 0.870879 -1.92398 0.00259969 0.00877979 -2.07863 0.0722294 0.449347 3.99793 -0.131037 
-47.9792 84.4419 -87.5936 -5.60042 9.15887 -26.269 2.32061 0.711955 -0.22862 1.22764 -1.5811 0.0858046 -1.83308 -1.36999 -1.44854 2.24605 4.1011 -2.18067 -0 0 0 -0 0 0 6.33016e-016 7.49954e-014 -4.89391e-015 20.9698 1.77262 -0.788238 -3.50906 -1.47521 5.60339 0.157826 8.83275 1.18877 2.69211e-010 2.29084e-010 -3.31455e-010 4.56661e-010 3.94751e-010 -5.78434e-010 2.69221e-010 2.29086e-010 -3.31465e-010 7.73091 5.47488 0.417314 2.69212e-010 2.29083e-010 -3.31456e-010 2.90554 0.965183 0.102902 2.69221e-010 2.29084e-010 -3.3146e-010 10.2786 0.731801 0.0259123 2.69213e-010 2.29082e-010 -3.31457e-010 2.22167 -0.733487 -0.20892 5.80705e-016 7.49941e-014 -5.12453e-015 -23.387 5.42319 0.548182 3.65376 -1.56157 -5.80934 -0.0467041 -4.79839 0.665865 3.79135e-011 6.69698e-011 4.23961e-010 6.08961e-011 1.15897e-010 7.3302e-010 3.79077e-011 6.69729e-011 4.23973e-010 -7.73091 5.47488 -0.417314 3.79131e-011 6.69716e-011 4.23964e-010 -2.90554 0.965183 -0.102902 3.79052e-011 6.69707e-011 4.23961e-010 -10.2786 0.731801 -0.0259123 3.79144e-011 6.69698e-011 4.23954e-010 -2.22167 -0.733487 0.20892 -2.03217e-016 0 -3.88251e-019 0.204897 -5.70532 -2.97567 0.00923063 7.80268 0.140771 -0.570308 -3.05345 -2.72673 2.03217e-016 0 3.88251e-019 2.5538 -4.33211 -6.14163 -0.0162382 3.29152 -0.12479 1.25123 -1.83011 5.77104 
-47.9785 84.4449 -87.6568 -2.27975 12.3297 -55.1848 2.94241 1.4687 -0.521914 2.0174 -3.25329 0.088283 -3.84538 -2.81392 -2.98206 4.96119 8.41401 -4.52234 -0 0 0 -0 0 0 -2.82289e-015 1.91509e-013 -1.28434e-014 43.1902 3.63124 -1.62348 -6.90658 -2.98772 11.5389 -0.0929182 18.17 2.54494 5.59901e-010 4.90447e-010 -6.96074e-010 9.49579e-010 8.45417e-010 -1.21536e-009 5.59915e-010 4.90449e-010 -6.96084e-010 7.73091 5.47488 0.417314 5.59903e-010 4.90445e-010 -6.96075e-010 2.90554 0.965183 0.102902 5.5991e-010 4.90445e-010 -6.96078e-010 10.2786 0.731801 0.0259123 5.59903e-010 4.90444e-010 -6.96074e-010 2.22167 -0.733487 -0.20892 -2.93583e-015 1.91507e-013 -1.31105e-014 -48.2321 11.1801 1.14203 7.17753 -3.1612 -11.9702 0.0269398 -9.8828 1.38745 6.42803e-011 1.32369e-010 8.93048e-010 1.01389e-010 2.29168e-010 1.54423e-009 6.42759e-011 1.32371e-010 8.93058e-010 -7.73091 5.47488 -0.417314 6.42809e-011 1.32372e-010 8.9305e-010 -2.90554 0.965183 -0.102902 6.42768e-011 1.32371e-010 8.93047e-010 -10.2786 0.731801 -0.0259123 6.42828e-011 1.3237e-010 8.9304e-010 -2.22167 -0.733487 0.20892 -2.03217e-016 0 -3.88251e-019 -1.32948 -4.39088 -5.93017 0.0137202 8.64504 0.192678 -0.976757 -6.18061 -5.69124 2.03217e-016 0 3.88251e-019 3.77453 -6.76011 -12.691 -0.0021822 8.96786 -0.336677 3.40409 -7.83164 12.1186 
-47.9818 84.4453 -87.721 2.36743 6.18175 -79.4347 3.50102 2.14243 -0.781464 2.72211 -4.74518 0.0911612 -5.70728 -4.09945 -4.35555 7.69089 12.2312 -6.67748 -0 0 0 -0 0 0 -3.56428e-015 2.25122e-013 -1.50793e-014 63.0561 5.31384 -2.37379 -9.67334 -4.25662 16.8525 -0.734478 26.4499 3.93662 7.54149e-010 6.88552e-010 -9.96796e-010 1.27761e-009 1.18652e-009 -1.73946e-009 7.54166e-010 6.88554e-010 -9.96805e-010 7.73091 5.47488 0.417314 7.54151e-010 6.88549e-010 -9.96797e-010 2.90554 0.965183 0.102902 7.54155e-010 6.88549e-010 -9.96799e-010 10.2786 0.731801 0.0259123 7.54151e-010 6.88548e-010 -9.96794e-010 2.22167 -0.733487 -0.20892 -3.72809e-015 2.2512e-013 -1.53736e-014 -70.4834 16.2635 1.70545 10.0251 -4.49243 -17.4769 0.20362 -14.3873 2.05507 6.02277e-011 2.02192e-010 1.26945e-009 9.02811e-011 3.49906e-010 2.19485e-009 6.02245e-011 2.02193e-010 1.26946e-009 -7.73091 5.47488 -0.417314 6.02292e-011 2.02195e-010 1.26946e-009 -2.90554 0.965183 -0.102902 6.02285e-011 2.02193e-010 1.26945e-009 -10.2786 0.731801 -0.0259123 6.02316e-011 2.02193e-010 1.26945e-009 -2.22167 -0.733487 0.20892 -2.03217e-016 0 -3.88251e-019 -2.58901 -3.22434 -8.55403 0.0164153 9.39624 0.239173 -1.61587 -8.93327 -8.37799 2.03217e-016 0 3.88251e-019 4.38631 -8.74895 -18.6015 0.0469556 14.0313 -0.534052 6.46714 -12.8729 18.0339 
